HIERARCHY
ROOT Hips
{
	OFFSET 0.000000 0.000000 0.000000
	CHANNELS 6 Xposition Yposition Zposition Xrotation Yrotation Zrotation
	JOINT LeftUpLeg_virtual
	{
		OFFSET 0.000000 0.000000 0.000000
		CHANNELS 3 Xrotation Yrotation Zrotation
		JOINT LeftUpLeg
		{
			OFFSET 15.427100 -6.655098 0.678600
			CHANNELS 3 Xrotation Yrotation Zrotation
			JOINT LeftLeg
			{
				OFFSET 4.081073 -39.591068 13.024000
				CHANNELS 3 Xrotation Yrotation Zrotation
				JOINT LeftFoot
				{
					OFFSET -4.081074 -37.707932 -15.979700
					CHANNELS 3 Xrotation Yrotation Zrotation
					JOINT LeftToeBase
					{
						OFFSET 5.346399 -15.068900 20.645000
						CHANNELS 3 Xrotation Yrotation Zrotation
						JOINT LeftToe_End
						{
							OFFSET 2.754700 0.931300 11.300900
							CHANNELS 3 Xrotation Yrotation Zrotation
							End Site
							{
								OFFSET 0 0 0
							}
						}
					}
				}
			}
		}
	}
	JOINT RightUpLeg_virtual
	{
		OFFSET 0.000000 0.000000 0.000000
		CHANNELS 3 Xrotation Yrotation Zrotation
		JOINT RightUpLeg
		{
			OFFSET -15.569500 -6.655098 0.678600
			CHANNELS 3 Xrotation Yrotation Zrotation
			JOINT RightLeg
			{
				OFFSET -4.081825 -39.591045 13.023800
				CHANNELS 3 Xrotation Yrotation Zrotation
				JOINT RightFoot
				{
					OFFSET 4.081824 -37.707954 -15.979600
					CHANNELS 3 Xrotation Yrotation Zrotation
					JOINT RightToeBase
					{
						OFFSET -5.346400 -15.068900 20.645000
						CHANNELS 3 Xrotation Yrotation Zrotation
						JOINT RightToe_End
						{
							OFFSET -2.754700 0.931300 11.300900
							CHANNELS 3 Xrotation Yrotation Zrotation
							End Site
							{
								OFFSET 0 0 0
							}
						}
					}
				}
			}
		}
	}
	JOINT Spine_virtual
	{
		OFFSET 0.000000 0.000000 0.000000
		CHANNELS 3 Xrotation Yrotation Zrotation
		JOINT Spine
		{
			OFFSET -0.279200 12.230698 -2.892100
			CHANNELS 3 Xrotation Yrotation Zrotation
			JOINT Spine1
			{
				OFFSET -0.232667 10.192268 -1.242267
				CHANNELS 3 Xrotation Yrotation Zrotation
				JOINT Spine1_split
				{
					OFFSET -0.232667 10.192268 -1.242267
					CHANNELS 3 Xrotation Yrotation Zrotation
					JOINT Spine2
					{
						OFFSET -0.232667 10.192268 -1.242267
						CHANNELS 3 Xrotation Yrotation Zrotation
						JOINT Neck_virtual
						{
							OFFSET 0.000000 0.000000 0.000000
							CHANNELS 3 Xrotation Yrotation Zrotation
							JOINT Neck
							{
								OFFSET -0.418800 17.814194 8.416900
								CHANNELS 3 Xrotation Yrotation Zrotation
								JOINT Head
								{
									OFFSET 0.000000 7.031097 3.806800
									CHANNELS 3 Xrotation Yrotation Zrotation
									JOINT HeadTop_End
									{
										OFFSET 0.000000 24.646606 12.978600
										CHANNELS 3 Xrotation Yrotation Zrotation
										End Site
										{
											OFFSET 0 0 0
										}
									}
								}
							}
						}
						JOINT LeftShoulder_virtual
						{
							OFFSET 0.000000 0.000000 0.000000
							CHANNELS 3 Xrotation Yrotation Zrotation
							JOINT LeftShoulder
							{
								OFFSET 8.476499 7.247704 -3.868750
								CHANNELS 3 Xrotation Yrotation Zrotation
								JOINT LeftShoulder_split
								{
									OFFSET 8.476499 7.247704 -3.868750
									CHANNELS 3 Xrotation Yrotation Zrotation
									JOINT LeftArm
									{
										OFFSET 9.308998 -2.777710 0.208600
										CHANNELS 3 Xrotation Yrotation Zrotation
										JOINT LeftForeArm
										{
											OFFSET 29.972298 0.000000 0.000000
											CHANNELS 3 Xrotation Yrotation Zrotation
											JOINT LeftHand
											{
												OFFSET 26.026505 0.000000 0.000000
												CHANNELS 3 Xrotation Yrotation Zrotation
												End Site
												{
													OFFSET 0 0 0
												}
											}
										}
									}
								}
							}
						}
						JOINT RightShoulder_virtual
						{
							OFFSET 0.000000 0.000000 0.000000
							CHANNELS 3 Xrotation Yrotation Zrotation
							JOINT RightShoulder
							{
								OFFSET -7.570500 7.247704 -3.868750
								CHANNELS 3 Xrotation Yrotation Zrotation
								JOINT RightShoulder_split
								{
									OFFSET -7.570500 7.247704 -3.868750
									CHANNELS 3 Xrotation Yrotation Zrotation
									JOINT RightArm
									{
										OFFSET -9.308998 -2.777710 0.208500
										CHANNELS 3 Xrotation Yrotation Zrotation
										JOINT RightForeArm
										{
											OFFSET -29.972300 0.000000 0.000000
											CHANNELS 3 Xrotation Yrotation Zrotation
											JOINT RightHand
											{
												OFFSET -26.026505 0.000000 0.000000
												CHANNELS 3 Xrotation Yrotation Zrotation
												End Site
												{
													OFFSET 0 0 0
												}
											}
										}
									}
								}
							}
						}
					}
				}
			}
		}
	}
}
MOTION
Frames: 6
Frame Time: 0.03333333
4.183578 95.974297 -6.182814 0.000000 0.000000 0.000000 -2.664864 6.566376 0.049485 -9.270381 12.770855 7.538246 12.477326 -4.812712 4.048469 -3.279153 4.592334 -10.728113 1.152168 -3.586078 0.666956 0.000000 0.000000 0.000000 -2.290426 7.086958 0.175778 -5.480450 1.441094 1.981998 11.354181 3.412245 -0.702284 -6.300029 -5.217622 5.419664 3.989610 0.694478 -13.067158 0.000000 0.000000 0.000000 -2.811137 10.520497 -0.441246 2.798109 -4.308334 0.853204 4.175485 -0.964699 0.464264 0.173237 -0.637405 0.082187 0.000000 0.000000 0.000000 2.939828 0.612375 0.783896 -9.721665 6.367891 6.236038 2.392156 -15.230690 -4.555151 0.000000 0.000000 0.000000 2.339839 -0.687346 0.547284 1.422516 -0.260077 -0.843863 0.781362 -1.218845 -2.199719 0.630058 9.513031 -83.295987 12.870703 -24.753586 6.657461 0.000000 0.000000 0.000000 3.067454 -0.551142 0.959114 3.018393 -3.502414 4.837622 -5.536819 0.210092 -1.388566 0.329614 16.036502 75.823610 0.176767 13.224401 2.261433 0.000000 0.000000 0.000000 
4.396453 95.984093 -6.174181 0.000000 0.000000 0.000000 -2.633855 6.345198 0.003531 -9.091183 12.707684 7.268388 12.224857 -4.615173 4.202147 -3.917558 4.673103 -10.228755 1.435145 -3.595164 0.601003 0.000000 0.000000 0.000000 -2.339336 6.980298 0.100735 -5.353707 1.157990 1.897098 10.965814 3.232100 -0.571529 -6.591493 -5.089375 4.838898 4.919237 0.720974 -13.014326 0.000000 0.000000 0.000000 -2.648703 10.361475 -0.562519 2.635935 -4.229029 0.952048 4.240044 -0.978058 0.424659 0.206473 -0.644761 0.086116 0.000000 0.000000 0.000000 3.026134 0.605114 0.777790 -9.634872 6.394611 6.237879 2.315407 -15.054300 -4.561691 0.000000 0.000000 0.000000 2.363122 -0.700802 0.511142 1.452593 -0.286200 -0.797235 0.888419 -1.507284 -2.053440 0.585009 9.472432 -83.347193 12.859485 -24.842598 6.664308 0.000000 0.000000 0.000000 3.053495 -0.556437 0.975439 2.945206 -3.714666 4.643724 -5.641731 0.038419 -1.417242 -0.166626 16.382928 75.963158 0.120372 13.989620 2.110516 0.000000 0.000000 0.000000 
4.769649 95.993149 -6.094706 0.000000 0.000000 0.000000 -2.631750 6.092972 -0.078855 -8.819804 12.873015 7.013593 12.318533 -4.485219 4.315492 -4.540736 4.556639 -10.064024 2.060445 -3.610918 0.703856 0.000000 0.000000 0.000000 -2.438040 6.538994 0.007869 -5.356651 0.807919 1.572257 10.530642 3.294481 -0.288006 -6.249863 -4.708358 4.867698 4.535809 0.936099 -12.814319 0.000000 0.000000 0.000000 -2.585420 10.194383 -0.712135 2.504635 -4.034610 1.129673 4.282689 -0.985943 0.348268 0.220697 -0.643548 0.075550 0.000000 0.000000 0.000000 3.149409 0.602898 0.718797 -9.638520 6.386244 6.294821 2.212211 -14.801920 -4.423715 0.000000 0.000000 0.000000 2.382796 -0.708507 0.422524 1.444001 -0.345687 -0.610428 1.022989 -1.851354 -1.881665 0.507589 9.553517 -83.480662 12.839960 -24.930949 6.623963 0.000000 0.000000 0.000000 3.058776 -0.563627 0.946352 2.821964 -4.008197 4.326090 -5.653816 -0.214853 -1.345366 -0.845177 16.851060 76.231113 0.119756 14.751547 1.574008 0.000000 0.000000 0.000000 
5.270878 96.018524 -5.948755 0.000000 0.000000 0.000000 -2.675267 5.833655 -0.136050 -8.481661 13.284417 6.737300 12.660691 -4.367685 4.360924 -5.066968 4.271681 -10.114317 2.702868 -3.639074 1.029229 0.000000 0.000000 0.000000 -2.493412 5.948255 -0.059638 -5.230710 0.573503 1.105713 10.051452 3.489728 0.102162 -5.769591 -4.260984 5.183329 3.339949 1.258680 -12.485492 0.000000 0.000000 0.000000 -2.621043 10.019041 -0.832538 2.428329 -3.780455 1.328861 4.309971 -0.987124 0.264828 0.205070 -0.643480 0.072731 0.000000 0.000000 0.000000 3.258161 0.601889 0.641768 -9.683876 6.359367 6.378516 2.184134 -14.523458 -4.145767 0.000000 0.000000 0.000000 2.381338 -0.711426 0.311674 1.408151 -0.423862 -0.369581 1.149869 -2.183761 -1.707826 0.475587 9.682315 -83.728407 12.819083 -25.014441 6.530995 0.000000 0.000000 0.000000 3.089627 -0.570424 0.895372 2.671384 -4.297481 3.946556 -5.619723 -0.380254 -1.263336 -1.561727 17.198580 76.608775 0.169920 15.410621 0.722441 0.000000 0.000000 0.000000 
5.867421 96.057632 -5.704695 0.000000 0.000000 0.000000 -2.749491 5.610531 -0.136507 -8.115030 13.832364 6.400562 13.021745 -4.192456 4.368170 -5.587004 3.930854 -10.107607 3.177495 -3.654467 1.512593 0.000000 0.000000 0.000000 -2.462260 5.352321 -0.128355 -4.839117 0.426135 0.616842 9.467008 3.539522 0.513412 -5.656870 -4.039303 5.340984 2.742342 1.538304 -12.134622 0.000000 0.000000 0.000000 -2.706351 9.871981 -0.911268 2.427591 -3.534066 1.486863 4.318619 -0.982515 0.207396 0.183187 -0.637022 0.067392 0.000000 0.000000 0.000000 3.307078 0.598938 0.586287 -9.760713 6.345335 6.470700 2.324221 -14.201628 -3.775167 0.000000 0.000000 0.000000 2.347261 -0.713464 0.223334 1.348792 -0.531075 -0.139194 1.338713 -2.419890 -1.526726 0.533031 9.735347 -84.072355 12.824873 -25.137646 6.392766 0.000000 0.000000 0.000000 3.129996 -0.579031 0.850367 2.532914 -4.476152 3.574910 -5.570668 -0.414120 -1.172145 -2.244379 17.230455 77.053891 0.233953 16.021884 -0.306592 0.000000 0.000000 0.000000 
6.556710 96.120926 -5.378542 0.000000 0.000000 0.000000 -2.793837 5.436845 -0.098051 -7.629525 14.338278 5.944738 13.194248 -3.868921 4.416811 -6.227326 3.677860 -9.701376 3.552286 -3.640097 1.982284 0.000000 0.000000 0.000000 -2.400309 4.920876 -0.198718 -4.206751 0.285928 0.069822 8.848500 3.367165 0.984826 -5.988482 -4.101952 5.330622 3.131943 1.769926 -12.013641 0.000000 0.000000 0.000000 -2.748708 9.807996 -0.950213 2.526751 -3.349366 1.570230 4.293730 -0.970562 0.197809 0.155063 -0.574969 0.061530 0.000000 0.000000 0.000000 3.274978 0.594987 0.578573 -9.839740 6.377554 6.562988 2.705292 -13.765035 -3.331677 0.000000 0.000000 0.000000 2.274643 -0.713366 0.195854 1.278393 -0.676475 -0.000939 1.607781 -2.523213 -1.339896 0.678876 9.628731 -84.443821 12.899587 -25.377520 6.239351 0.000000 0.000000 0.000000 3.155412 -0.583378 0.838693 2.424018 -4.456774 3.225441 -5.486763 -0.351560 -1.045838 -2.863325 16.837089 77.520414 0.277086 16.706860 -1.359928 0.000000 0.000000 0.000000 
